<?xml version="1.0" ?><svg viewBox="0 0 64 64" xmlns="http://www.w3.org/2000/svg"><g id="Glyph"><g data-name="Glyph" id="Glyph-2"><path d="M25,62H39a5,5,0,0,0,5-5V36a3.01,3.01,0,0,0-2-2.82V30.82A3.01,3.01,0,0,0,44,28V19.88a2.991,2.991,0,0,0-.98-2.21c-.11-.08-5.91-5.42-6.02-5.45V10a2.006,2.006,0,0,0,2-2V4a2.006,2.006,0,0,0-2-2H27a2.006,2.006,0,0,0-2,2V8a2.006,2.006,0,0,0,2,2v2.22c-.09.02-5.94,5.4-6.02,5.44A3.03,3.03,0,0,0,20,19.88V28a3.01,3.01,0,0,0,2,2.82v2.36A3.01,3.01,0,0,0,20,36V57A5,5,0,0,0,25,62Zm7-5a1,1,0,1,1,1-1A1,1,0,0,1,32,57ZM29,10h6v2H29Zm-1.01,4h8.02l5.66,5.15a.98.98,0,0,1,.33.77c-3.51,1.54-6.45,1.57-12.52-1.79a15.433,15.433,0,0,0-4.19-1.67ZM22,55h6a1,1,0,0,1,0,2H22Z"/></g></g></svg>